<svg xmlns="http://www.w3.org/2000/svg" width="2500" height="843" viewBox="0 0 2500 843" role="img" aria-label="LINE๊รมแหๅü {2๛ุ๋ื๛Þรื">
  <title>LINE๊รมแหๅü{2 / ุ๋ื / Þรื	</title>
  <desc>*3I๛2500ื843ฟรื฿n๎: ๆ833 / -834 / ๓833 ื ุU843</desc>

  <!-- Columns: 833 / 834 / 833 -->
  <rect x="0" y="0" width="833" height="843" fill="#2EA094"/>
  <rect x="833" y="0" width="834" height="843" fill="#3AAFA2"/>
  <rect x="1667" y="0" width="833" height="843" fill="#208278"/>

  <!-- Soft dividers -->
  <line x1="833" y1="80" x2="833" y2="763" stroke="rgba(255,255,255,0.28)" stroke-width="3"/>
  <line x1="1667" y1="80" x2="1667" y2="763" stroke="rgba(255,255,255,0.28)" stroke-width="3"/>

  <!-- ===== {2 (center x = 416.5) ===== -->
  <g transform="translate(416.5 320)" fill="none" stroke="#fff" stroke-width="6" stroke-linecap="round" stroke-linejoin="round">
    <rect x="-55" y="-65" width="110" height="130" rx="14"/>
    <rect x="-21" y="-73" width="42" height="16" rx="6"/>
    <circle cx="0" cy="-22" r="16"/>
    <path d="M-36 18a36 36 0 0 1 72 0"/>
    <circle cx="47" cy="57" r="22" fill="#2EA094" stroke="#fff" stroke-width="5"/>
    <path d="M39 57h16M47 49v16" stroke="#fff" stroke-width="5"/>
  </g>
  <text x="416.5" y="545" text-anchor="middle" font-family="Hiragino Sans, Noto Sans JP, Yu Gothic, Meiryo, sans-serif" font-size="96" font-weight="700" fill="#fff">{2</text>
  <text x="416.5" y="665" text-anchor="middle" font-family="Hiragino Sans, Noto Sans JP, Yu Gothic, Meiryo, sans-serif" font-size="42" fill="rgba(255,255,255,0.85)">—๛Kถ๛T</text>

  <!-- ===== ุ๋ื (center x = 1250) ===== -->
  <g transform="translate(1250 320)" fill="none" stroke="#fff" stroke-width="7" stroke-linecap="round">
    <circle cx="0" cy="0" r="72"/>
  </g>
  <text x="1250" y="355" text-anchor="middle" font-family="Hiragino Sans, Noto Sans JP, Yu Gothic, Meiryo, sans-serif" font-size="110" font-weight="700" fill="#fff">?</text>
  <text x="1250" y="545" text-anchor="middle" font-family="Hiragino Sans, Noto Sans JP, Yu Gothic, Meiryo, sans-serif" font-size="96" font-weight="700" fill="#fff">ุ๋ื</text>
  <text x="1250" y="665" text-anchor="middle" font-family="Hiragino Sans, Noto Sans JP, Yu Gothic, Meiryo, sans-serif" font-size="42" fill="rgba(255,255,255,0.85)">ณÞ๓ษ๛H…</text>

  <!-- ===== Þรื (center x = 2083.5) ===== -->
  <g transform="translate(2083.5 305)" fill="none" stroke="#fff" stroke-width="7" stroke-linecap="round" stroke-linejoin="round">
    <circle cx="0" cy="-20" r="39"/>
    <circle cx="0" cy="-20" r="16"/>
    <path d="M-33 8 L0 95 L33 8"/>
    <ellipse cx="0" cy="108" rx="25" ry="7"/>
  </g>
  <text x="2083.5" y="545" text-anchor="middle" font-family="Hiragino Sans, Noto Sans JP, Yu Gothic, Meiryo, sans-serif" font-size="96" font-weight="700" fill="#fff">Þรื</text>
  <text x="2083.5" y="665" text-anchor="middle" font-family="Hiragino Sans, Noto Sans JP, Yu Gothic, Meiryo, sans-serif" font-size="42" fill="rgba(255,255,255,0.85)">0๓’O</text>
</svg>
